<mxfile host="app.diagrams.net" modified="2024-07-18T09:08:14.225Z" agent="Mozilla/5.0 (Windows NT 10.0; Win64; x64) AppleWebKit/537.36 (KHTML, like Gecko) Chrome/126.0.0.0 Safari/537.36" etag="D85SIwlJniv4H8wT5DoA" version="24.7.1" type="device">
  <diagram name="Page-1" id="YgVejucHib48huBusIxR">
    <mxGraphModel dx="792" dy="1139" grid="1" gridSize="10" guides="1" tooltips="1" connect="1" arrows="1" fold="1" page="1" pageScale="1" pageWidth="850" pageHeight="1100" math="0" shadow="0">
      <root>
        <mxCell id="0" />
        <mxCell id="1" parent="0" />
        <mxCell id="ilnDOgYixkTVRzA1u4ON-3" value="Plant" style="rounded=1;whiteSpace=wrap;html=1;" vertex="1" parent="1">
          <mxGeometry x="400" y="430" width="90" height="30" as="geometry" />
        </mxCell>
        <mxCell id="ilnDOgYixkTVRzA1u4ON-4" value="Leaves" style="rounded=1;whiteSpace=wrap;html=1;" vertex="1" parent="1">
          <mxGeometry x="600" y="590" width="90" height="30" as="geometry" />
        </mxCell>
        <mxCell id="ilnDOgYixkTVRzA1u4ON-5" value="Flowers" style="rounded=1;whiteSpace=wrap;html=1;" vertex="1" parent="1">
          <mxGeometry x="440" y="590" width="90" height="30" as="geometry" />
        </mxCell>
        <mxCell id="ilnDOgYixkTVRzA1u4ON-6" value="Seed" style="rounded=1;whiteSpace=wrap;html=1;" vertex="1" parent="1">
          <mxGeometry x="440" y="730" width="90" height="30" as="geometry" />
        </mxCell>
        <mxCell id="ilnDOgYixkTVRzA1u4ON-7" value="Fruit" style="rounded=1;whiteSpace=wrap;html=1;" vertex="1" parent="1">
          <mxGeometry x="440" y="660" width="90" height="30" as="geometry" />
        </mxCell>
        <mxCell id="ilnDOgYixkTVRzA1u4ON-8" value="Root" style="rounded=1;whiteSpace=wrap;html=1;" vertex="1" parent="1">
          <mxGeometry x="260" y="510" width="90" height="30" as="geometry" />
        </mxCell>
        <mxCell id="ilnDOgYixkTVRzA1u4ON-9" value="Stem" style="rounded=1;whiteSpace=wrap;html=1;" vertex="1" parent="1">
          <mxGeometry x="520" y="510" width="90" height="30" as="geometry" />
        </mxCell>
        <mxCell id="ilnDOgYixkTVRzA1u4ON-11" value="" style="endArrow=none;html=1;rounded=0;entryX=0;entryY=1;entryDx=0;entryDy=0;exitX=1;exitY=0;exitDx=0;exitDy=0;" edge="1" parent="1" source="ilnDOgYixkTVRzA1u4ON-8" target="ilnDOgYixkTVRzA1u4ON-3">
          <mxGeometry width="50" height="50" relative="1" as="geometry">
            <mxPoint x="410" y="610" as="sourcePoint" />
            <mxPoint x="460" y="560" as="targetPoint" />
          </mxGeometry>
        </mxCell>
        <mxCell id="ilnDOgYixkTVRzA1u4ON-12" value="" style="endArrow=none;html=1;rounded=0;entryX=0.5;entryY=1;entryDx=0;entryDy=0;exitX=0.5;exitY=0;exitDx=0;exitDy=0;" edge="1" parent="1" source="ilnDOgYixkTVRzA1u4ON-7" target="ilnDOgYixkTVRzA1u4ON-5">
          <mxGeometry width="50" height="50" relative="1" as="geometry">
            <mxPoint x="360" y="520" as="sourcePoint" />
            <mxPoint x="410" y="470" as="targetPoint" />
          </mxGeometry>
        </mxCell>
        <mxCell id="ilnDOgYixkTVRzA1u4ON-13" value="" style="endArrow=none;html=1;rounded=0;entryX=0.811;entryY=1.233;entryDx=0;entryDy=0;exitX=0.333;exitY=0.033;exitDx=0;exitDy=0;exitPerimeter=0;entryPerimeter=0;" edge="1" parent="1" source="ilnDOgYixkTVRzA1u4ON-4" target="ilnDOgYixkTVRzA1u4ON-9">
          <mxGeometry width="50" height="50" relative="1" as="geometry">
            <mxPoint x="370" y="530" as="sourcePoint" />
            <mxPoint x="420" y="480" as="targetPoint" />
          </mxGeometry>
        </mxCell>
        <mxCell id="ilnDOgYixkTVRzA1u4ON-14" value="" style="endArrow=none;html=1;rounded=0;entryX=0.5;entryY=0;entryDx=0;entryDy=0;exitX=0;exitY=1;exitDx=0;exitDy=0;" edge="1" parent="1" source="ilnDOgYixkTVRzA1u4ON-9" target="ilnDOgYixkTVRzA1u4ON-5">
          <mxGeometry width="50" height="50" relative="1" as="geometry">
            <mxPoint x="380" y="540" as="sourcePoint" />
            <mxPoint x="430" y="490" as="targetPoint" />
          </mxGeometry>
        </mxCell>
        <mxCell id="ilnDOgYixkTVRzA1u4ON-15" value="" style="endArrow=none;html=1;rounded=0;entryX=1;entryY=1;entryDx=0;entryDy=0;exitX=0;exitY=0;exitDx=0;exitDy=0;" edge="1" parent="1" source="ilnDOgYixkTVRzA1u4ON-9" target="ilnDOgYixkTVRzA1u4ON-3">
          <mxGeometry width="50" height="50" relative="1" as="geometry">
            <mxPoint x="390" y="550" as="sourcePoint" />
            <mxPoint x="440" y="500" as="targetPoint" />
          </mxGeometry>
        </mxCell>
        <mxCell id="ilnDOgYixkTVRzA1u4ON-16" value="" style="endArrow=none;html=1;rounded=0;entryX=0.5;entryY=1;entryDx=0;entryDy=0;exitX=0.5;exitY=0;exitDx=0;exitDy=0;" edge="1" parent="1" source="ilnDOgYixkTVRzA1u4ON-6" target="ilnDOgYixkTVRzA1u4ON-7">
          <mxGeometry width="50" height="50" relative="1" as="geometry">
            <mxPoint x="400" y="560" as="sourcePoint" />
            <mxPoint x="450" y="510" as="targetPoint" />
          </mxGeometry>
        </mxCell>
      </root>
    </mxGraphModel>
  </diagram>
</mxfile>
